<?xml version="1.0" standalone="no"?>
<svg viewBox="0 0 200 200" xmlns="http://www.w3.org/2000/svg">
  <path fill="#4E57D4" d="M26.9,-45.4C39.4,-39.4,57.2,-41.3,62.8,-35.1C68.5,-28.8,62,-14.4,62.3,0.2C62.7,14.8,69.9,29.7,68.5,43.3C67.1,57,57.2,69.4,44.4,73C31.5,76.5,15.8,71.1,3.7,64.7C-8.3,58.2,-16.7,50.7,-30.7,47.9C-44.8,45.1,-64.7,47,-74.4,39.8C-84,32.6,-83.5,16.3,-83.3,0.1C-83.1,-16.1,-83.3,-32.1,-76.2,-43.8C-69.2,-55.5,-54.9,-62.9,-41,-68.1C-27,-73.4,-13.5,-76.4,-3.2,-71C7.2,-65.5,14.4,-51.4,26.9,-45.4Z" transform="translate(100 100)" />
</svg>
