<?xml version="1.0" standalone="no"?>
<svg viewBox="0 0 200 200" xmlns="http://www.w3.org/2000/svg">
  <path fill="#6970DD" d="M35.5,-66.1C45.5,-55.7,52.8,-45.2,58.4,-34.1C64,-23.1,67.9,-11.6,63,-2.8C58.2,5.9,44.5,11.9,39.3,23.6C34.1,35.3,37.4,52.8,32.2,65.2C27.1,77.6,13.5,84.9,3.6,78.6C-6.3,72.3,-12.5,52.4,-23.6,43.4C-34.7,34.5,-50.6,36.5,-61.2,31C-71.8,25.6,-77,12.8,-71.4,3.2C-65.9,-6.4,-49.6,-12.8,-41.9,-23.2C-34.2,-33.6,-35.1,-47.9,-29.5,-61C-24,-74,-12,-85.7,0.4,-86.4C12.7,-87,25.5,-76.6,35.5,-66.1Z" transform="translate(100 100)" />
</svg>
